<svg xmlns="http://www.w3.org/2000/svg" viewBox="0 0 281.999849615234 85.965369875" width="281.999849615234" height="85.965369875" role="img" aria-label="Panda wordmark">
  <path fill="#d97757" fill-rule="nonzero" d="M539.0830078125,114.554069519043C537.650695800781,114.554061889648 536.2041015625,114.826202392578 534.7431640625,115.370460510254 533.2822265625,115.914741516113 531.892883300781,116.616561889648 530.5751953125,117.475936889648 529.257507324219,118.335311889648 528.054382324219,119.280624389648 526.9658203125,120.311874389648 525.877258300781,121.343124389648 524.9892578125,122.345733642578 524.3017578125,123.319686889648 522.9267578125,125.153022766113 521.480163574219,127.244171142578 519.9619140625,129.593124389648 518.443664550781,131.942077636719 516.925476074219,134.405624389648 515.4072265625,136.983749389648 513.888977050781,139.561874389648 512.4423828125,142.197296142578 511.0673828125,144.889999389648 509.6923828125,147.582702636719 508.474945068359,150.203796386719 507.4150390625,152.753280639648 506.355133056641,155.302764892578 505.510101318359,157.737655639648 504.8798828125,160.057968139648 504.249664306641,162.378280639648 503.9345703125,164.455108642578 503.9345703125,166.288436889648 503.9345703125,168.981140136719 504.4501953125,171.143905639648 505.4814453125,172.776718139648 506.5126953125,174.409530639648 508.460601806641,175.225936889648 511.3251953125,175.225936889648 512.299133300781,175.225936889648 513.7314453125,174.610046386719 515.6220703125,173.378280639648 517.5126953125,172.146514892578 519.5322265625,170.585311889648 521.6806640625,168.694686889648 523.8291015625,166.804061889648 525.9345703125,164.755889892578 527.9970703125,162.550155639648 530.0595703125,160.344421386719 531.749694824219,158.238952636719 533.0673828125,156.233749389648 534.499694824219,154.113952636719 535.9462890625,151.793640136719 537.4072265625,149.272811889648 538.8681640625,146.751983642578 540.2001953125,144.173858642578 541.4033203125,141.538436889648 542.6064453125,138.903015136719 543.580383300781,136.310577392578 544.3251953125,133.761093139648 545.070007324219,131.211608886719 545.4423828125,128.848327636719 545.4423828125,126.671249389648 545.4423828125,122.374374389648 544.7978515625,119.280624389648 543.5087890625,117.389999389648 542.2197265625,115.499374389648 540.744445800781,114.554061889648 539.0830078125,114.554069519043z M416.966674804688,110.343124389648C413.930206298828,110.343124389648 409.805206298828,113.522811889648 404.591674804688,119.882186889648 401.956268310547,123.147811889648 399.535675048828,126.270210266113 397.329956054688,129.249374389648 395.124237060547,132.228546142578 393.104705810547,135.179061889648 391.271362304688,138.100936889648 389.266143798828,141.251983642578 387.561737060547,144.145202636719 386.158081054688,146.780624389648 384.754425048828,149.416046142578 383.565643310547,151.764999389648 382.591674804688,153.827499389648 379.211456298828,161.103546142578 377.521362304688,166.832702636719 377.521362304688,171.014999389648 377.521362304688,176.343124389648 379.326049804688,179.007186889648 382.935424804688,179.007186889648 386.143768310547,179.007186889648 390.555206298828,177.145202636719 396.169799804688,173.421249389648 401.956268310547,169.468124389648 406.425018310547,165.916046142578 409.576049804688,162.764999389648 412.841674804688,159.327499389648 415.563018798828,156.434265136719 417.740112304688,154.085311889648 419.917205810547,151.736358642578 421.635955810547,149.845733642578 422.896362304688,148.413436889648 424.156768798828,146.981140136719 425.316925048828,145.376983642578 426.376831054688,143.600936889648 427.436706542969,141.824890136719 428.453643798828,139.876983642578 429.427612304688,137.757186889648 427.938018798828,137.413436889648 426.806518554688,136.668640136719 426.033081054688,135.522811889648 425.259643554688,134.376983642578 424.872924804688,133.087921142578 424.872924804688,131.655624389648 424.872924804688,130.509796142578 425.044799804688,128.819686889648 425.388549804688,126.585311889648 425.732299804688,124.350936889648 425.904174804688,122.632186889648 425.904174804688,121.429061889648 425.904174804688,120.397811889648 425.632019042969,119.237655639648 425.087768554688,117.948593139648 424.543487548828,116.659530639648 423.841674804688,115.456405639648 422.982299804688,114.339218139648 422.122924804688,113.222030639648 421.163299560547,112.276718139648 420.103393554688,111.503280639648 419.043487548828,110.729843139648 417.997924804688,110.343124389648 416.966674804688,110.343124389648z M181.0703125,108.538436889648C178.95051574707,108.767608642578 176.6875,109.469429016113 174.28125,110.643905639648 171.875,111.818389892578 169.32551574707,113.623077392578 166.6328125,116.057968139648 163.940093994141,118.492866516113 161.104156494141,121.629585266113 158.125,125.468124389648 155.14582824707,129.306671142578 152.05207824707,133.975936889648 148.84375,139.475936889648 147.869781494141,141.137390136719 146.795562744141,142.956405639648 145.62109375,144.932968139648 144.44660949707,146.909530639648 143.32942199707,149.086608886719 142.26953125,151.464218139648 141.20964050293,153.841827392578 140.32160949707,156.376983642578 139.60546875,159.069686889648 138.88932800293,161.762390136719 138.53125,164.598327636719 138.53125,167.577499389648 138.53125,169.353546142578 139.17578125,170.699890136719 140.46484375,171.616561889648 141.75390625,172.533233642578 143.0859375,172.991561889648 144.4609375,172.991561889648 145.893218994141,172.991561889648 147.75520324707,172.203796386719 150.046875,170.628280639648 152.338531494141,169.052764892578 154.81640625,166.961608886719 157.48046875,164.354843139648 160.14453125,161.748077392578 162.865875244141,158.768905639648 165.64453125,155.417343139648 168.42317199707,152.065780639648 171.00129699707,148.613952636719 173.37890625,145.061874389648 175.756500244141,141.509796142578 177.819000244141,138.014999389648 179.56640625,134.577499389648 181.31379699707,131.139999389648 182.502593994141,128.017608642578 183.1328125,125.210311889648 183.3046875,124.350936889648 183.50520324707,123.334014892578 183.734375,122.159530639648 183.963531494141,120.985054016113 184.178375244141,119.810577392578 184.37890625,118.636093139648 184.57942199707,117.461616516113 184.75129699707,116.373077392578 184.89453125,115.370460510254 185.037750244141,114.367866516113 185.109375,113.637397766113 185.109375,113.179061889648 185.109375,113.064483642578 185.0234375,112.749374389648 184.8515625,112.233749389648 184.6796875,111.718124389648 184.421875,111.188179016113 184.078125,110.643905639648 183.734375,110.099639892578 183.319000244141,109.612655639648 182.83203125,109.182968139648 182.34504699707,108.753280639648 181.815093994141,108.538436889648 181.2421875,108.538436889648L181.0703125,108.538436889648z M453.576049804688,56.2884368896484C455.294799804688,56.2884368896484 456.984893798828,56.6608428955078 458.646362304688,57.4056243896484 460.422393798828,58.0931243896484 461.310424804688,59.0670928955078 461.310424804688,60.3274993896484 461.310424804688,61.0149993896484 461.181518554688,62.1321868896484 460.923706054688,63.6790618896484 460.665893554688,65.2259368896484 460.307800292969,67.2311477661133 459.849487304688,69.6946868896484 459.391143798828,72.1582336425781 458.775268554688,75.2090148925781 458.001831054688,78.8470306396484 457.228393554688,82.4850540161133 456.383331298828,86.8248977661133 455.466674804688,91.8665618896484 455.409362792969,92.4394836425781 455.237487792969,93.5853118896484 454.951049804688,95.3040618896484 454.664581298828,97.0228118896484 454.349487304688,98.8418273925781 454.005737304688,100.761093139648 453.661987304688,102.680366516113 453.346862792969,104.456405639648 453.060424804688,106.089218139648 452.773956298828,107.722030639648 452.602081298828,108.738960266113 452.544799804688,109.139999389648 451.799987792969,113.780624389648 451.198425292969,118.134796142578 450.740112304688,122.202499389648 450.281768798828,126.270210266113 450.052612304688,130.395202636719 450.052612304688,134.577499389648 450.052612304688,137.900421142578 450.138549804688,141.824890136719 450.310424804688,146.350936889648 450.482299804688,150.934265136719 450.911987304688,155.374374389648 451.599487304688,159.671249389648 452.286987304688,163.968124389648 453.289581298828,166.116561889648 454.607299804688,166.116561889648 459.305206298828,166.116561889648 464.977081298828,163.968124389648 471.622924804688,159.671249389648 478.211456298828,155.317077636719 484.570831298828,150.332702636719 490.701049804688,144.718124389648 493.766143798828,141.910827636719 496.659362792969,139.167999267578 499.380737304688,136.489608764648L504.336578369141,131.408462524414 505.0302734375,130.205429077148C506.390960693359,128.092803955078 507.859069824219,126.041038513184 509.4345703125,124.050155639648 512.585632324219,120.068389892578 515.7939453125,116.573593139648 519.0595703125,113.565780639648 522.3251953125,110.557968139648 525.433288574219,108.180366516113 528.3837890625,106.432968139648 531.334289550781,104.685577392578 533.726257324219,103.811874389648 535.5595703125,103.811874389648 536.0751953125,103.811874389648 536.662414550781,103.926460266113 537.3212890625,104.155616760254 537.980163574219,104.384796142578 538.667663574219,104.628280639648 539.3837890625,104.886093139648 540.099914550781,105.143905639648 540.787414550781,105.373077392578 541.4462890625,105.573593139648 542.105163574219,105.774116516113 542.663757324219,105.874374389648 543.1220703125,105.874374389648 543.580383300781,105.874374389648 544.038757324219,105.774116516113 544.4970703125,105.573593139648 544.955383300781,105.373077392578 545.413757324219,105.143905639648 545.8720703125,104.886093139648 546.330383300781,104.628280639648 546.788757324219,104.384796142578 547.2470703125,104.155616760254 547.705383300781,103.926460266113 548.163757324219,103.811874389648 548.6220703125,103.811874389648 549.3095703125,103.811874389648 550.054382324219,104.041046142578 550.8564453125,104.499374389648 551.658508300781,104.957710266113 552.431945800781,105.544952392578 553.1767578125,106.261093139648 553.921569824219,106.977241516113 554.580383300781,107.793647766113 555.1533203125,108.710311889648 555.726257324219,109.626983642578 556.127258300781,110.514999389648 556.3564453125,111.374374389648 556.585632324219,112.405624389648 556.886413574219,113.164741516113 557.2587890625,113.651718139648 557.631164550781,114.138702392578 558.003601074219,114.582710266113 558.3759765625,114.983749389648 558.748352050781,115.384796142578 559.0634765625,115.857452392578 559.3212890625,116.401718139648 559.5791015625,116.945991516113 559.7080078125,117.791046142578 559.7080078125,118.936874389648 559.7080078125,119.509796142578 559.507507324219,120.712921142578 559.1064453125,122.546249389648 558.705383300781,124.379585266113 558.261413574219,126.513702392578 557.7744140625,128.948593139648 557.287414550781,131.383483886719 556.843444824219,133.918640136719 556.4423828125,136.554061889648 556.041320800781,139.189483642578 555.8408203125,141.595733642578 555.8408203125,143.772811889648 555.8408203125,149.903015136719 556.1845703125,154.916046142578 556.8720703125,158.811874389648 557.5595703125,162.707702636719 558.5048828125,165.787139892578 559.7080078125,168.050155639648 560.9111328125,170.313171386719 562.3291015625,171.874374389648 563.9619140625,172.733749389648 565.5947265625,173.593124389648 567.327819824219,174.022811889648 569.1611328125,174.022811889648 573.515319824219,174.022811889648 577.081726074219,173.278015136719 579.8603515625,171.788436889648 582.638977050781,170.298858642578 585.116882324219,168.093124389648 587.2939453125,165.171249389648 587.924133300781,164.369171142578 588.468444824219,163.653015136719 588.9267578125,163.022811889648 589.385070800781,162.392608642578 589.843383789063,162.077499389648 590.3017578125,162.077499389648 591.103820800781,162.077499389648 591.834289550781,162.392608642578 592.4931640625,163.022811889648 593.151977539063,163.653015136719 593.4814453125,164.311874389648 593.4814453125,164.999374389648 593.4814453125,165.916046142578 593.295227050781,166.961608886719 592.9228515625,168.136093139648 592.550476074219,169.310577392578 591.963195800781,170.499374389648 591.1611328125,171.702499389648 590.1298828125,173.478546142578 588.769165039063,175.297546386719 587.0791015625,177.159530639648 585.388977050781,179.021514892578 583.498352050781,180.711608886719 581.4072265625,182.229843139648 579.316101074219,183.748077392578 577.038757324219,184.994171142578 574.5751953125,185.968124389648 572.111633300781,186.942077636719 569.562194824219,187.429061889648 566.9267578125,187.429061889648 563.4892578125,187.429061889648 560.5244140625,186.655624389648 558.0322265625,185.108749389648 555.5400390625,183.561874389648 553.3916015625,181.456405639648 551.5869140625,178.792343139648 549.7822265625,176.128280639648 548.292663574219,173.020202636719 547.1181640625,169.468124389648 545.943664550781,165.916046142578 544.984069824219,162.163436889648 544.2392578125,158.210311889648 541.718444824219,161.876983642578 538.724914550781,165.514999389648 535.2587890625,169.124374389648 531.792663574219,172.733749389648 528.2119140625,175.985046386719 524.5166015625,178.878280639648 520.8212890625,181.771514892578 517.183288574219,184.120468139648 513.6025390625,185.925155639648 510.021820068359,187.729843139648 506.8564453125,188.632186889648 504.1064453125,188.632186889648 502.273101806641,188.632186889648 500.511383056641,188.173858642578 498.8212890625,187.257186889648 497.131195068359,186.340515136719 495.6416015625,185.108749389648 494.3525390625,183.561874389648 493.0634765625,182.014999389648 492.046539306641,180.238952636719 491.3017578125,178.233749389648 490.556976318359,176.228546142578 490.1845703125,174.108749389648 490.1845703125,171.874374389648 490.1845703125,169.639999389648 490.370758056641,167.291046142578 490.7431640625,164.827499389648 491.115570068359,162.363952636719 491.745758056641,159.714218139648 492.6337890625,156.878280639648L493.119232177734,155.466354370117 492.849487304688,155.761093139648C490.385925292969,158.253280639648 487.779174804688,160.788436889648 485.029174804688,163.366561889648 482.279174804688,165.944686889648 479.615112304688,168.264999389648 477.036987304688,170.327499389648 474.458862304688,172.389999389648 471.938018798828,174.251983642578 469.474487304688,175.913436889648 464.604675292969,179.236358642578 460.708862304688,180.897811889648 457.786987304688,180.897811889648 456.641143798828,180.897811889648 455.180206298828,180.496765136719 453.404174804688,179.694686889648 449.794799804688,178.033233642578 446.930206298828,174.996765136719 444.810424804688,170.585311889648 442.747924804688,166.173858642578 441.286987304688,161.561874389648 440.427612304688,156.749374389648 439.568237304688,151.936874389648 438.852081298828,146.551452636719 438.279174804688,140.593124389648 431.117706298828,153.942077636719 421.836456298828,165.801452636719 410.435424804688,176.171249389648 398.977081298828,186.598327636719 387.117706298828,191.811874389648 374.857299804688,191.811874389648 371.477081298828,191.811874389648 368.898956298828,190.007186889648 367.122924804688,186.397811889648 365.346893310547,182.845733642578 364.458862304688,179.150421142578 364.458862304688,175.311874389648 364.458862304688,170.155624389648 364.888549804688,166.317077636719 365.747924804688,163.796249389648L366.740081787109,161.069854736328 361.366027832031,165.944686889648C358.67333984375,168.179061889648 356.037902832031,170.155624389648 353.459777832031,171.874374389648 351.397277832031,173.249374389648 349.43505859375,174.538436889648 347.573059082031,175.741561889648 345.711090087891,176.944686889648 343.834777832031,177.975936889648 341.944152832031,178.835311889648 340.053527832031,179.694686889648 338.076965332031,180.382186889648 336.014465332031,180.897811889648 333.951965332031,181.413436889648 331.68896484375,181.671249389648 329.225402832031,181.671249389648 324.47021484375,181.671249389648 320.60302734375,180.468124389648 317.623840332031,178.061874389648 316.13427734375,176.858749389648 314.830871582031,175.297546386719 313.713684082031,173.378280639648 312.596496582031,171.459014892578 311.62255859375,169.324890136719 310.791809082031,166.975936889648 309.961090087891,164.626983642578 309.244934082031,162.134796142578 308.643371582031,159.499374389648 308.041809082031,156.863952636719 307.54052734375,154.257186889648 307.139465332031,151.679061889648 306.623840332031,148.470733642578 306.136871337891,145.591827392578 305.678527832031,143.042343139648 305.22021484375,140.492858886719 304.690246582031,138.344421386719 304.088684082031,136.597030639648 303.487121582031,134.849639892578 302.756652832031,133.503280639648 301.897277832031,132.557968139648 301.037902832031,131.612655639648 299.920715332031,131.139999389648 298.545715332031,131.139999389648 297.457183837891,131.139999389648 296.425933837891,131.254577636719 295.451965332031,131.483749389648 294.47802734375,131.712921142578 293.461090087891,132.171249389648 292.401184082031,132.858749389648 291.34130859375,133.546249389648 290.18115234375,134.520202636719 288.920715332031,135.780624389648 287.660308837891,137.041046142578 286.18505859375,138.702499389648 284.494934082031,140.764999389648 282.804840087891,142.827499389648 280.871246337891,145.348327636719 278.694152832031,148.327499389648 276.51708984375,151.306671142578 273.967590332031,154.858749389648 271.045715332031,158.983749389648 269.613433837891,160.988952636719 267.92333984375,163.194686889648 265.975402832031,165.600936889648 264.027496337891,168.007186889648 262.03662109375,170.298858642578 260.002746582031,172.475936889648 257.968902587891,174.653015136719 255.97802734375,176.572296142578 254.03010559082,178.233749389648 252.082183837891,179.895202636719 250.363433837891,180.955108642578 248.87385559082,181.413436889648 243.832183837891,180.324890136719 241.31135559082,174.051452636719 241.31135559082,162.593124389648 241.31135559082,159.556671142578 241.65510559082,154.944686889648 242.34260559082,148.757186889648 242.68635559082,145.949890136719 243.08740234375,143.013702392578 243.54573059082,139.948593139648L243.633743286133,139.477767944336 241.3662109375,142.344100952148C239.48274230957,144.571319580078 237.55989074707,146.694686889648 235.59765625,148.714218139648 231.67317199707,152.753280639648 227.705718994141,156.577499389648 223.6953125,160.186874389648 219.51301574707,163.968124389648 215.34504699707,166.918640136719 211.19140625,169.038436889648 207.037750244141,171.158233642578 203.299468994141,172.218124389648 199.9765625,172.218124389648 198.54426574707,172.218124389648 197.12629699707,171.874374389648 195.72265625,171.186874389648 194.319000244141,170.499374389648 193.00129699707,169.597030639648 191.76953125,168.479843139648 190.537750244141,167.362655639648 189.44921875,166.059265136719 188.50390625,164.569686889648 187.55859375,163.080108642578 186.828125,161.533233642578 186.3125,159.929061889648 186.026031494141,159.069686889648 185.768218994141,158.081405639648 185.5390625,156.964218139648 185.30989074707,155.847030639648 185.080718994141,154.815780639648 184.8515625,153.870468139648 184.62239074707,152.925155639648 184.36457824707,152.123077392578 184.078125,151.464218139648 183.791656494141,150.805358886719 183.4765625,150.475936889648 183.1328125,150.475936889648 182.90364074707,150.475936889648 182.416656494141,150.848327636719 181.671875,151.593124389648 180.92707824707,152.337921142578 180.053375244141,153.297546386719 179.05078125,154.472030639648 178.04817199707,155.646514892578 176.97395324707,156.964218139648 175.828125,158.425155639648 174.682281494141,159.886093139648 173.55078125,161.304061889648 172.43359375,162.679061889648 171.31640625,164.054061889648 170.31379699707,165.314483642578 169.42578125,166.460311889648 168.537750244141,167.606140136719 167.8359375,168.465515136719 167.3203125,169.038436889648 165.54426574707,171.043640136719 163.43879699707,173.091827392578 161.00390625,175.182968139648 158.569000244141,177.274108886719 156.13410949707,179.179061889648 153.69921875,180.897811889648 151.264312744141,182.616561889648 149.02995300293,184.020202636719 146.99609375,185.108749389648 144.96223449707,186.197296142578 143.45832824707,186.741561889648 142.484375,186.741561889648 140.30729675293,186.741561889648 138.20182800293,186.383483886719 136.16796875,185.667343139648 134.13410949707,184.951202392578 132.34375,183.905624389648 130.796875,182.530624389648 129.25,181.155624389648 128.00390625,179.465515136719 127.05859375,177.460311889648 126.11328125,175.455108642578 125.640625,173.163436889648 125.640625,170.585311889648 125.640625,166.345733642578 126.485679626465,161.504577636719 128.17578125,156.061874389648 129.020843505859,153.340515136719 130.001953125,150.597686767578 131.119140625,147.833358764648L132.791915893555,144.115005493164 132.34375,144.417343139648C129.36457824707,146.336608886719 126.05598449707,148.370468139648 122.41796875,150.518905639648 118.779945373535,152.667343139648 114.92707824707,154.844421386719 110.859375,157.050155639648 106.791664123535,159.255889892578 102.72395324707,161.418640136719 98.65625,163.538436889648 94.5885391235352,165.658233642578 90.6354141235352,167.663436889648 86.796875,169.554061889648 82.9583282470703,171.444686889648 79.4635391235352,173.106140136719 76.3125,174.538436889648 74.0208282470703,175.569686889648 71.84375,176.729843139648 69.78125,178.018905639648 67.71875,179.307968139648 65.69921875,180.511093139648 63.7226600646973,181.628280639648 61.74609375,182.745468139648 59.7552070617676,183.676452636719 57.7499961853027,184.421249389648 55.7447891235352,185.166046142578 53.625,185.538436889648 51.390625,185.538436889648 50.0729141235352,185.538436889648 48.7981758117676,185.380889892578 47.5664100646973,185.065780639648 46.3346328735352,184.750671386719 45.2317695617676,184.249374389648 44.2578163146973,183.561874389648 43.2838516235352,182.874374389648 42.49609375,182.000671386719 41.8945274353027,180.940780639648 41.29296875,179.880889892578 40.9921875,178.606140136719 40.9921875,177.116561889648 40.9921875,176.314483642578 41.2643203735352,175.569686889648 41.80859375,174.882186889648 42.3528633117676,174.194686889648 43.0546875,173.578796386719 43.9140625,173.034530639648 44.7734375,172.490264892578 45.71875,171.988952636719 46.75,171.530624389648 47.78125,171.072296142578 48.7838516235352,170.671249389648 49.7578086853027,170.327499389648 50.7890586853027,169.926452636719 52.0065078735352,169.511093139648 53.41015625,169.081405639648 54.8138008117676,168.651718139648 56.2317695617676,168.222030639648 57.6640625,167.792343139648 59.0963516235352,167.362655639648 60.4856719970703,166.918640136719 61.83203125,166.460311889648 63.1783828735352,166.001983642578 64.3385391235352,165.543640136719 65.3125,165.085311889648 67.1458282470703,164.111358642578 68.8645782470703,162.879577636719 70.46875,161.389999389648 72.0729141235352,159.900421142578 73.5625,158.267608642578 74.9375,156.491561889648 76.3125,154.715515136719 77.6015625,152.867858886719 78.8046875,150.948593139648 80.0078125,149.029327392578 81.125,147.181671142578 82.1562576293945,145.405624389648 82.84375,144.202499389648 83.5026016235352,142.856140136719 84.1328125,141.366561889648 84.7630157470703,139.876983642578 85.3216094970703,138.387390136719 85.80859375,136.897811889648 86.2955703735352,135.408233642578 86.66796875,133.990264892578 86.92578125,132.643905639648 87.18359375,131.297546386719 87.3125,130.166046142578 87.3125,129.249374389648 87.3125,125.296249389648 86.453125,122.145210266113 84.734375,119.796249389648 83.015625,117.447296142578 80.8671875,116.272811889648 78.2890548706055,116.272811889648 76.6848907470703,116.272811889648 74.8372344970703,116.802764892578 72.74609375,117.862655639648 70.6549453735352,118.922554016113 68.5637969970703,120.197296142578 66.47265625,121.686874389648 64.3815078735352,123.176460266113 62.43359375,124.737655639648 60.62890625,126.370468139648 58.82421875,128.003280639648 57.3776016235352,129.392608642578 56.2890586853027,130.538436889648 53.6536407470703,133.345733642578 51.1757774353027,136.396514892578 48.85546875,139.690780639648 46.53515625,142.985046386719 44.34375,146.365264892578 42.2812461853027,149.831405639648 40.21875,153.297546386719 38.2708320617676,156.778015136719 36.4375,160.272811889648 34.6041641235352,163.767608642578 32.9140625,167.119171142578 31.3671855926514,170.327499389648 30.6796875,173.020202636719 30.0065097808838,175.999374389648 29.3476543426514,179.264999389648 28.6888008117676,182.530624389648 28.1874980926514,186.111358642578 27.8437538146973,190.007186889648 27.2135410308838,197.741561889648 26.7408847808838,204.645202636719 26.4257793426514,210.718124389648 26.1106758117676,216.791046142578 25.4661445617676,222.348327636719 24.4921913146973,227.389999389648 24.1484375,229.223327636719 23.3177070617676,230.841827392578 22.0000057220459,232.245468139648 20.6822910308838,233.649108886719 18.9635410308838,234.350936889648 16.84375,234.350936889648 16.2135410308838,234.350936889648 15.46875,234.193389892578 14.6093778610229,233.878280639648 13.75,233.563171386719 12.93359375,233.119171142578 12.1601552963257,232.546249389648 11.38671875,231.973327636719 10.7278642654419,231.328796386719 10.1835947036743,230.612655639648 9.63932228088379,229.896514892578 9.3671875,229.108749389648 9.3671875,228.249374389648 9.3671875,226.358749389648 9.49609375,224.024108886719 9.75390529632568,221.245468139648 10.01171875,218.466827392578 10.3125,215.673858642578 10.6562471389771,212.866561889648 11,210.059265136719 11.3294267654419,207.509796142578 11.6445322036743,205.218124389648 11.9596347808838,202.926452636719 12.1744785308838,201.322296142578 12.2890615463257,200.405624389648 13.0911455154419,194.504577636719 13.8072910308838,188.130889892578 14.4375,181.284530639648 15.0677080154419,174.438171386719 15.5833330154419,166.975936889648 15.9843711853027,158.897811889648 16.0416660308838,157.179061889648 16.11328125,154.901718139648 16.1992206573486,152.065780639648 16.28515625,149.229843139648 16.37109375,146.365264892578 16.4570331573486,143.472030639648 16.54296875,140.578796386719 16.62890625,137.886093139648 16.71484375,135.393905639648 16.80078125,132.901718139648 16.9010410308838,131.139999389648 17.0156269073486,130.108749389648 17.8177070617676,119.166046142578 20.6822929382324,113.694686889648 25.6093730926514,113.694686889648 26.5833320617676,113.694686889648 27.5143203735352,113.938179016113 28.4023399353027,114.425163269043 29.2903633117676,114.912139892578 30.078125,115.542343139648 30.7656288146973,116.315780639648 31.453125,117.089218139648 31.9973945617676,117.962921142578 32.3984336853027,118.936874389648 32.7994766235352,119.910835266113 33,120.856147766113 33,121.772804260254 33,123.778022766113 32.78515625,125.940780639648 32.3554725646973,128.261093139648 31.9257793426514,130.581405639648 31.4531230926514,132.959014892578 30.9374961853027,135.393905639648 30.4218730926514,137.828796386719 29.9492168426514,140.220733642578 29.51953125,142.569686889648 29.0898418426514,144.918640136719 28.8749980926514,147.067077636719 28.8750019073486,149.014999389648 28.8749980926514,150.676452636719 29.0468730926514,151.507186889648 29.390625,151.507186889648 33.4010391235352,144.288436889648 37.3255195617676,137.943389892578 41.1640663146973,132.472030639648 45.0026016235352,127.000679016113 48.8411445617676,122.460311889648 52.6796836853027,118.850936889648 55.1432266235352,116.559272766113 57.578125,114.453804016113 59.9843788146973,112.534530639648 62.390625,110.615264892578 64.8111953735352,108.953804016113 67.24609375,107.550155639648 69.6809844970703,106.146514892578 72.2018203735352,105.057968139648 74.80859375,104.284538269043 77.4153594970703,103.511093139648 80.1796875,103.095733642578 83.1015625,103.038436889648 85.1067657470703,102.981147766113 87.18359375,103.468124389648 89.33203125,104.499374389648 91.48046875,105.530624389648 93.4140625,107.077499389648 95.1328125,109.139999389648 96.8515548706055,111.202499389648 98.2695236206055,113.709014892578 99.38671875,116.659530639648 100.503898620605,119.610054016113 101.033843994141,122.947296142578 100.976554870605,126.671249389648 101.033843994141,129.535827636719 100.589836120605,132.400421142578 99.6445236206055,135.264999389648 98.6992111206055,138.129577636719 97.4387969970703,140.951202392578 95.86328125,143.729843139648 94.2877578735352,146.508483886719 92.46875,149.186874389648 90.40625,151.764999389648 88.34375,154.343124389648 86.1953125,156.720733642578 83.9609375,158.897811889648 88.6588516235352,157.121765136719 93.4856719970703,154.944686889648 98.4413986206055,152.366561889648 103.397132873535,149.788436889648 108.35285949707,147.009796142578 113.30859375,144.030624389648 118.264320373535,141.051452636719 123.13410949707,137.957702636719 127.91796875,134.749374389648 132.701812744141,131.541046142578 137.27082824707,128.418640136719 141.625,125.382186889648 142.283843994141,124.923858642578 142.87825012207,124.501327514648 143.408203125,124.114616394043L144.405715942383,123.362648010254 144.4609375,123.276718139648C148.0703125,118.091827392578 151.822906494141,113.637397766113 155.71875,109.913436889648 160.244781494141,105.616561889648 164.98567199707,102.451202392578 169.94140625,100.417350769043 174.897125244141,98.3834915161133 179.98176574707,97.3665618896484 185.1953125,97.3665618896484 186.16926574707,97.3665618896484 187.014312744141,97.5670852661133 187.73046875,97.9681243896484 188.44660949707,98.3691711425781 189.0625,98.8847961425781 189.578125,99.5149993896484 190.09375,100.145210266113 190.55207824707,100.847030639648 190.953125,101.620460510254 191.354156494141,102.393905639648 191.75520324707,103.181671142578 192.15625,103.983749389648 192.385406494141,104.499374389648 192.87239074707,105.072296142578 193.6171875,105.702499389648 194.361968994141,106.332710266113 195.135406494141,106.977241516113 195.9375,107.636093139648 196.73957824707,108.294952392578 197.44140625,108.939483642578 198.04296875,109.569686889648 198.64453125,110.199897766113 198.9453125,110.801460266113 198.9453125,111.374374389648 198.9453125,112.577499389648 198.701812744141,113.909530639648 198.21484375,115.370460510254 197.72785949707,116.831405639648 197.197906494141,118.521514892578 196.625,120.440773010254 196.05207824707,122.360054016113 195.522125244141,124.537139892578 195.03515625,126.972023010254 194.54817199707,129.406921386719 194.3046875,132.199890136719 194.3046875,135.350936889648 194.3046875,137.413436889648 194.490875244141,139.762390136719 194.86328125,142.397811889648 195.23567199707,145.033233642578 195.80859375,147.539733886719 196.58203125,149.917343139648 197.35546875,152.294952392578 198.34375,154.285827636719 199.546875,155.889999389648 200.75,157.494171142578 202.15364074707,158.296249389648 203.7578125,158.296249389648 205.705718994141,158.296249389648 207.65364074707,157.737655639648 209.6015625,156.620468139648 211.549468994141,155.503280639648 213.783843994141,153.942077636719 216.3046875,151.936874389648 221.91926574707,147.468124389648 227.24739074707,142.569686889648 232.2890625,137.241561889648 237.330718994141,131.913436889648 242.486968994141,126.613960266113 247.7578125,121.343124389648L247.835861206055,121.282699584961 250.76448059082,113.780624389648C251.33740234375,112.634796142578 251.93896484375,111.732452392578 252.56916809082,111.073593139648 253.199371337891,110.414741516113 253.843902587891,109.927764892578 254.50276184082,109.612655639648 255.16162109375,109.297554016113 255.84912109375,109.097030639648 256.565246582031,109.011093139648 257.281402587891,108.925155639648 258.011871337891,108.882186889648 258.756652832031,108.882186889648 259.67333984375,108.882186889648 260.48974609375,109.512397766113 261.205871582031,110.772811889648 261.922027587891,112.033233642578 262.280090332031,113.780624389648 262.280090332031,116.014999389648 262.280090332031,117.389999389648 262.16552734375,118.679061889648 261.936340332031,119.882186889648 261.707183837891,121.085311889648 261.39208984375,122.317085266113 260.991027832031,123.577499389648 260.589996337891,124.837921142578 260.160308837891,126.198593139648 259.701965332031,127.659530639648 259.24365234375,129.120468139648 258.785308837891,130.796249389648 258.326965332031,132.686874389648 257.983215332031,134.233749389648 257.596496582031,135.952499389648 257.166809082031,137.843124389648 256.737121582031,139.733749389648 256.336090087891,141.653015136719 255.96369934082,143.600936889648 255.59130859375,145.548858642578 255.27619934082,147.453796386719 255.01838684082,149.315780639648 254.76057434082,151.177764892578 254.63166809082,152.853546142578 254.63166809082,154.343124389648 254.63166809082,155.374374389648 254.80354309082,156.434265136719 255.14729309082,157.522811889648 256.75146484375,157.350936889648 259.386871337891,154.944686889648 263.053527832031,150.304061889648 264.944152832031,147.955108642578 267.02099609375,145.376983642578 269.283996582031,142.569686889648 271.547027587891,139.762390136719 273.996246337891,136.668640136719 276.631652832031,133.288436889648 278.57958984375,130.767608642578 280.51318359375,128.418640136719 282.432434082031,126.241561889648 284.351715087891,124.064483642578 286.342590332031,122.159530639648 288.405090332031,120.526718139648 290.467590332031,118.893905639648 292.658996582031,117.604843139648 294.979309082031,116.659530639648 297.299621582031,115.714218139648 299.863433837891,115.241561889648 302.670715332031,115.241561889648 305.64990234375,115.241561889648 308.127746582031,115.886093139648 310.104309082031,117.175155639648 312.080871582031,118.464218139648 313.670715332031,120.240264892578 314.873840332031,122.503280639648 316.076965332031,124.766304016113 317.007965087891,127.473335266113 317.666809082031,130.624374389648 318.32568359375,133.775421142578 318.855621337891,137.241561889648 319.256652832031,141.022811889648 319.600402832031,144.231140136719 319.929840087891,147.410827636719 320.244934082031,150.561874389648 320.56005859375,153.712921142578 321.175933837891,156.534530639648 322.092590332031,159.026718139648 323.00927734375,161.518905639648 324.326965332031,163.538436889648 326.045715332031,165.085311889648 327.764465332031,166.632186889648 330.22802734375,167.405624389648 333.436340332031,167.405624389648 335.89990234375,167.405624389648 338.47802734375,166.832702636719 341.170715332031,165.686874389648 343.863433837891,164.541046142578 346.699371337891,162.951202392578 349.678527832031,160.917343139648 352.65771484375,158.883483886719 355.737121582031,156.491561889648 358.916809082031,153.741561889648 362.096496582031,150.991561889648 365.37646484375,147.983749389648 368.756652832031,144.718124389648 370.074371337891,143.457702636719 371.52099609375,141.867858886719 373.096496582031,139.948593139648 374.672027587891,138.029327392578 376.218902587891,136.181671142578 377.737121582031,134.405624389648 378.496246337891,133.517608642578 379.230285644531,132.694030761719 379.939300537109,131.934921264648L381.199279785156,130.655120849609 385.427612304688,124.264999389648C388.349487304688,120.254585266113 391.672393798828,116.244171142578 395.396362304688,112.233749389648 399.177612304688,108.223335266113 402.729705810547,105.358749389648 406.052612304688,103.639999389648 410.177612304688,101.405624389648 416.107299804688,100.288436889648 423.841674804688,100.288429260254 426.534362792969,100.288436889648 428.826049804688,101.778022766113 430.716674804688,104.757186889648 432.607299804688,107.736358642578 434.039581298828,111.202499389648 435.013549804688,115.155624389648 435.987487792969,119.337921142578 436.474487304688,122.603546142578 436.474487304688,124.952499389648 437.333862304688,122.145210266113 438.107299804688,119.294952392578 438.794799804688,116.401718139648 439.482299804688,113.508491516113 440.083862304688,110.514999389648 440.599487304688,107.421249389648 441.115112304688,104.327499389648 441.587768554688,101.076202392578 442.017456054688,97.6673431396484 442.447143554688,94.2584915161133 442.833862304688,90.6061477661133 443.177612304688,86.7103118896484 443.292175292969,85.679069519043 443.406768798828,84.3613586425781 443.521362304688,82.7571868896484 443.635925292969,81.1530227661133 443.779174804688,79.2623977661133 443.951049804688,77.0853118896484 444.294799804688,72.6165618896484 444.638549804688,68.8496398925781 444.982299804688,65.7845306396484 445.326049804688,62.7194366455078 445.784362792969,60.7285461425781 446.357299804688,59.8118743896484 447.732299804688,57.4629211425781 450.138549804688,56.2884368896484 453.576049804688,56.2884368896484z" transform="translate(-4.522309515625 -27.1750441384583) scale(0.482782)" />
</svg>



