<svg xmlns="http://www.w3.org/2000/svg" viewBox="0 0 512 512" role="img" aria-label="Panda app icon">
  <rect width="512" height="512" fill="#faf9f5" />
  <path fill="#d97757" fill-rule="nonzero" d="M116.1328125,157.61572265625C113.007804870605,157.61572265625 109.414054870605,159.00244140625 105.3515625,161.77587890625 101.289054870605,164.54931640625 97.0703048706055,168.18212890625 92.6953125,172.67431640625 88.3203125,177.16650390625 83.9453125,182.26416015625 79.5703125,187.96728515625 75.1953125,193.67041015625 71.1328125,199.41259765625 67.3828125,205.19384765625 66.4453125,206.67822265625 65.21484375,208.67041015625 63.69140625,211.17041015625 62.1679649353027,213.67041015625 60.7031211853027,216.26806640625 59.296875,218.96337890625 57.8906211853027,221.65869140625 56.6796836853027,224.21728515625 55.6640625,226.63916015625 54.6484336853027,229.06103515625 54.1406211853027,230.89697265625 54.140625,232.14697265625 54.1406211853027,232.85009765625 54.4531211853027,233.74853515625 55.078125,234.84228515625 55.7031211853027,235.93603515625 56.6210899353027,237.01025390625 57.83203125,238.06494140625 59.0429649353027,239.11962890625 60.5664024353027,240.03759765625 62.40234375,240.81884765625 64.23828125,241.60009765625 66.3671875,241.99072265625 68.7890625,241.99072265625 72.0703125,241.99072265625 75.78125,240.99462890625 79.921875,239.00244140625 84.0625,237.01025390625 88.26171875,234.31494140625 92.51953125,230.91650390625 96.7773361206055,227.51806640625 100.957023620605,223.55322265625 105.05859375,219.02197265625 109.160148620605,214.49072265625 112.792961120605,209.70556640625 115.95703125,204.66650390625 119.121086120605,199.62744140625 121.679679870605,194.45166015625 123.6328125,189.13916015625 125.585929870605,183.82666015625 126.562492370605,178.67041015625 126.5625,173.67041015625 126.562492370605,170.23291015625 126.171867370605,167.45947265625 125.390625,165.35009765625 124.609367370605,163.24072265625 123.671867370605,161.61962890625 122.578125,160.48681640625 121.484367370605,159.35400390625 120.332023620605,158.59228515625 119.12109375,158.20166015625 117.910148620605,157.81103515625 116.914054870605,157.61572265625 116.1328125,157.61572265625z M48.28125,136.17041015625C49.1406211853027,136.17041015625 49.9999961853027,136.61962890625 50.859375,137.51806640625 51.7187461853027,138.41650390625 52.4999961853027,139.62744140625 53.203125,141.15087890625 53.9062461853027,142.67431640625 54.4726524353027,144.49072265625 54.90234375,146.60009765625 55.3320274353027,148.70947265625 55.5468711853027,150.97509765625 55.546875,153.39697265625 55.5468711853027,157.45947265625 55.3124961853027,162.10791015625 54.84375,167.34228515625 54.3749961853027,172.57666015625 53.8085899353027,177.86962890625 53.14453125,183.22119140625 52.4804649353027,188.57275390625 51.7968711853027,193.67041015625 51.09375,198.51416015625 50.3906211853027,203.35791015625 49.8437461853027,207.42041015625 49.453125,210.70166015625 52.4999961853027,203.82666015625 56.0351524353027,197.26416015625 60.05859375,191.01416015625 64.08203125,184.76416015625 68.28125,178.98291015625 72.65625,173.67041015625 77.03125,168.35791015625 81.50390625,163.57275390625 86.07421875,159.31494140625 90.64453125,155.05712890625 95.0390625,151.40478515625 99.2578125,148.35791015625 103.476554870605,145.31103515625 107.421867370605,142.98681640625 111.09375,141.38525390625 114.765617370605,139.78369140625 117.890617370605,138.98291015625 120.46875,138.98291015625 123.984367370605,138.98291015625 127.285148620605,139.66650390625 130.37109375,141.03369140625 133.45703125,142.40087890625 136.15234375,144.19775390625 138.45703125,146.42431640625 140.76171875,148.65087890625 142.55859375,151.18994140625 143.84765625,154.04150390625 145.13671875,156.89306640625 145.78125,159.80322265625 145.78125,162.77197265625 145.78125,171.20947265625 144.8046875,179.06103515625 142.8515625,186.32666015625 140.8984375,193.59228515625 138.0859375,200.44775390625 134.4140625,206.89306640625 130.7421875,213.33837890625 126.210929870605,219.47119140625 120.8203125,225.29150390625 115.429679870605,231.11181640625 109.335929870605,236.87353515625 102.5390625,242.57666015625 99.9609298706055,244.68603515625 97.0507736206055,246.75634765625 93.80859375,248.78759765625 90.56640625,250.81884765625 87.1875,252.61572265625 83.671875,254.17822265625 80.15625,255.74072265625 76.62109375,257.01025390625 73.06640625,257.98681640625 69.51171875,258.96337890625 66.171875,259.45166015625 63.046875,259.45166015625 60.7812461853027,259.45166015625 58.9453086853027,259.19775390625 57.5390625,258.68994140625 56.1328086853027,258.18212890625 54.9023399353027,257.45947265625 53.84765625,256.52197265625 52.7929649353027,255.58447265625 51.7968711853027,254.47119140625 50.859375,253.18212890625 49.9218711853027,251.89306640625 48.8281211853027,250.46728515625 47.578125,248.90478515625 45.78125,254.21728515625 44.3359375,258.67041015625 43.2421875,262.26416015625 42.1484375,265.85791015625 41.25,269.06103515625 40.546875,271.87353515625 39.84375,274.68603515625 39.296875,277.36181640625 38.90625,279.90087890625 38.515625,282.43994140625 38.125,285.31103515625 37.734375,288.51416015625 37.34375,291.71728515625 36.85546875,295.52587890625 36.26953125,299.93994140625 35.68359375,304.35400390625 34.8828125,309.80322265625 33.8671875,316.28759765625 33.7109375,317.53759765625 33.28125,318.98291015625 32.578125,320.62353515625 31.8749980926514,322.26416015625 31.0351543426514,323.82666015625 30.0585918426514,325.31103515625 29.0820293426514,326.79541015625 28.0273418426514,328.04541015625 26.89453125,329.06103515625 25.7617168426514,330.07666015625 24.6874980926514,330.58447265625 23.6718730926514,330.58447265625 22.578125,330.58447265625 21.25,330.25244140625 19.6875,329.58837890625 18.125,328.92431640625 16.640625,328.10400390625 15.234375,327.12744140625 13.8281240463257,326.15087890625 12.6171865463257,325.15478515625 11.6015634536743,324.13916015625 10.5859375,323.12353515625 10.078125,322.26416015625 10.0781230926514,321.56103515625 10.078125,318.82666015625 10.41015625,316.09228515625 11.0742177963257,313.35791015625 11.7382802963257,310.62353515625 12.3046865463257,308.00634765625 12.7734355926514,305.50634765625 15.1953115463257,293.16259765625 17.71484375,281.60009765625 20.3320293426514,270.81884765625 22.9492168426514,260.03759765625 25.3124980926514,249.33447265625 27.421875,238.70947265625 29.5312480926514,228.08447265625 31.2695293426514,217.12744140625 32.63671875,205.83837890625 34.00390625,194.54931640625 34.6875,182.22509765625 34.6875,168.86572265625 34.6875,168.55322265625 34.66796875,167.83056640625 34.62890625,166.69775390625 34.58984375,165.56494140625 34.5703125,164.35400390625 34.5703125,163.06494140625 34.5703125,161.77587890625 34.55078125,160.58447265625 34.51171875,159.49072265625 34.47265625,158.39697265625 34.453125,157.65478515625 34.453125,157.26416015625 34.453125,154.68603515625 34.78515625,152.14697265625 35.44921875,149.64697265625 36.11328125,147.14697265625 37.0703125,144.90087890625 38.3203125,142.90869140625 39.5703125,140.91650390625 41.03515625,139.29541015625 42.71484375,138.04541015625 44.39453125,136.79541015625 46.25,136.17041015625 48.28125,136.17041015625z" transform="translate(173.84 31.921) scale(0.977296)" />
</svg>
